<mxfile host="app.diagrams.net" agent="Mozilla/5.0 (Macintosh; Intel Mac OS X 10.15; rv:144.0) Gecko/20100101 Firefox/144.0" version="28.2.8">
  <diagram name="Page-1" id="IgfIBA6axke1pL9pKmTf">
    <mxGraphModel dx="1267" dy="983" grid="1" gridSize="10" guides="1" tooltips="1" connect="1" arrows="1" fold="1" page="1" pageScale="1" pageWidth="850" pageHeight="1100" math="0" shadow="0">
      <root>
        <mxCell id="0" />
        <mxCell id="1" parent="0" />
        <mxCell id="ooKsd2hV_ut468zElQwH-32" value="" style="whiteSpace=wrap;strokeWidth=2;" parent="1" vertex="1">
          <mxGeometry x="300" y="510" width="719" height="458" as="geometry" />
        </mxCell>
        <mxCell id="ooKsd2hV_ut468zElQwH-24" value="" style="whiteSpace=wrap;strokeWidth=2;" parent="1" vertex="1">
          <mxGeometry x="300" y="90" width="1200" height="128" as="geometry" />
        </mxCell>
        <mxCell id="ooKsd2hV_ut468zElQwH-44" style="edgeStyle=orthogonalEdgeStyle;rounded=0;orthogonalLoop=1;jettySize=auto;html=1;exitX=0.5;exitY=1;exitDx=0;exitDy=0;" parent="1" source="ooKsd2hV_ut468zElQwH-25" target="ooKsd2hV_ut468zElQwH-40" edge="1">
          <mxGeometry relative="1" as="geometry" />
        </mxCell>
        <mxCell id="ooKsd2hV_ut468zElQwH-47" value="&lt;div&gt;Akses Lan Lokal&lt;/div&gt;Koneksi Internet" style="edgeLabel;html=1;align=center;verticalAlign=middle;resizable=0;points=[];" parent="ooKsd2hV_ut468zElQwH-44" vertex="1" connectable="0">
          <mxGeometry x="0.1779" y="2" relative="1" as="geometry">
            <mxPoint as="offset" />
          </mxGeometry>
        </mxCell>
        <mxCell id="ooKsd2hV_ut468zElQwH-25" value="Laptop Windows (Lokal)" style="whiteSpace=wrap;strokeWidth=2;" parent="1" vertex="1">
          <mxGeometry x="436" y="127" width="200" height="54" as="geometry" />
        </mxCell>
        <mxCell id="ooKsd2hV_ut468zElQwH-30" style="edgeStyle=orthogonalEdgeStyle;rounded=0;orthogonalLoop=1;jettySize=auto;html=1;exitX=0.5;exitY=1;exitDx=0;exitDy=0;entryX=0.75;entryY=0;entryDx=0;entryDy=0;" parent="1" source="ooKsd2hV_ut468zElQwH-26" target="ooKsd2hV_ut468zElQwH-34" edge="1">
          <mxGeometry relative="1" as="geometry">
            <mxPoint x="1045.5" y="290" as="targetPoint" />
          </mxGeometry>
        </mxCell>
        <mxCell id="ooKsd2hV_ut468zElQwH-52" value="Tunnel VPN Tailscale" style="edgeLabel;html=1;align=center;verticalAlign=middle;resizable=0;points=[];" parent="ooKsd2hV_ut468zElQwH-30" vertex="1" connectable="0">
          <mxGeometry x="0.2195" relative="1" as="geometry">
            <mxPoint as="offset" />
          </mxGeometry>
        </mxCell>
        <mxCell id="ooKsd2hV_ut468zElQwH-26" value="Laptop MacOS (Jarak Jauh)" style="whiteSpace=wrap;strokeWidth=2;" parent="1" vertex="1">
          <mxGeometry x="773" y="127" width="254" height="54" as="geometry" />
        </mxCell>
        <mxCell id="ooKsd2hV_ut468zElQwH-31" style="edgeStyle=orthogonalEdgeStyle;rounded=0;orthogonalLoop=1;jettySize=auto;html=1;entryX=1;entryY=1;entryDx=0;entryDy=0;" parent="1" source="ooKsd2hV_ut468zElQwH-27" target="ooKsd2hV_ut468zElQwH-34" edge="1">
          <mxGeometry relative="1" as="geometry">
            <mxPoint x="1080" y="739" as="targetPoint" />
            <Array as="points">
              <mxPoint x="1270" y="711" />
              <mxPoint x="701" y="711" />
            </Array>
          </mxGeometry>
        </mxCell>
        <mxCell id="ooKsd2hV_ut468zElQwH-51" value="Tunnel VPN Tailscale" style="edgeLabel;html=1;align=center;verticalAlign=middle;resizable=0;points=[];" parent="ooKsd2hV_ut468zElQwH-31" vertex="1" connectable="0">
          <mxGeometry x="0.0024" y="-4" relative="1" as="geometry">
            <mxPoint as="offset" />
          </mxGeometry>
        </mxCell>
        <mxCell id="ooKsd2hV_ut468zElQwH-27" value="Smartphone Android (Jarak Jauh)" style="whiteSpace=wrap;strokeWidth=2;" parent="1" vertex="1">
          <mxGeometry x="1146" y="127" width="260" height="53" as="geometry" />
        </mxCell>
        <mxCell id="ooKsd2hV_ut468zElQwH-46" style="edgeStyle=orthogonalEdgeStyle;rounded=0;orthogonalLoop=1;jettySize=auto;html=1;exitX=0.25;exitY=0;exitDx=0;exitDy=0;" parent="1" source="ooKsd2hV_ut468zElQwH-32" target="ooKsd2hV_ut468zElQwH-40" edge="1">
          <mxGeometry relative="1" as="geometry">
            <Array as="points">
              <mxPoint x="536" y="510" />
            </Array>
          </mxGeometry>
        </mxCell>
        <mxCell id="ooKsd2hV_ut468zElQwH-48" value="Akses Lan Lokal&lt;br&gt;Koneksi Internet" style="edgeLabel;html=1;align=center;verticalAlign=middle;resizable=0;points=[];" parent="ooKsd2hV_ut468zElQwH-46" vertex="1" connectable="0">
          <mxGeometry x="0.3443" y="-1" relative="1" as="geometry">
            <mxPoint as="offset" />
          </mxGeometry>
        </mxCell>
        <mxCell id="ooKsd2hV_ut468zElQwH-34" value="LXC Container: Nextcloud" style="whiteSpace=wrap;strokeWidth=2;" parent="1" vertex="1">
          <mxGeometry x="444" y="658" width="257" height="54" as="geometry" />
        </mxCell>
        <mxCell id="ooKsd2hV_ut468zElQwH-36" value="Storage ZFS 2TB" style="shape=cylinder3;boundedLbl=1;backgroundOutline=1;size=10;strokeWidth=2;whiteSpace=wrap;" parent="1" vertex="1">
          <mxGeometry x="507" y="811" width="130" height="77" as="geometry" />
        </mxCell>
        <mxCell id="ooKsd2hV_ut468zElQwH-38" value="(Menyimpan data ke)" style="curved=1;startArrow=none;endArrow=block;exitX=0.5;exitY=1;entryX=0.5;entryY=0;rounded=0;" parent="1" source="ooKsd2hV_ut468zElQwH-34" target="ooKsd2hV_ut468zElQwH-36" edge="1">
          <mxGeometry relative="1" as="geometry">
            <Array as="points" />
          </mxGeometry>
        </mxCell>
        <mxCell id="ooKsd2hV_ut468zElQwH-40" value="Router" style="rounded=1;arcSize=20;strokeWidth=2" parent="1" vertex="1">
          <mxGeometry x="463.5" y="330" width="145" height="54" as="geometry" />
        </mxCell>
        <mxCell id="ooKsd2hV_ut468zElQwH-43" value="Perangkat&lt;br&gt;User/Peneliti" style="text;html=1;whiteSpace=wrap;strokeColor=none;fillColor=none;align=center;verticalAlign=middle;rounded=0;" parent="1" vertex="1">
          <mxGeometry x="842" y="90" width="116" height="30" as="geometry" />
        </mxCell>
        <mxCell id="ooKsd2hV_ut468zElQwH-49" value="Server Homelab&lt;br&gt;(Proxmox VE)" style="text;html=1;whiteSpace=wrap;strokeColor=none;fillColor=none;align=center;verticalAlign=middle;rounded=0;" parent="1" vertex="1">
          <mxGeometry x="507" y="520" width="116" height="30" as="geometry" />
        </mxCell>
        <mxCell id="ooKsd2hV_ut468zElQwH-54" style="edgeStyle=orthogonalEdgeStyle;rounded=0;orthogonalLoop=1;jettySize=auto;html=1;entryX=0.778;entryY=0.948;entryDx=0;entryDy=0;entryPerimeter=0;" parent="1" source="ooKsd2hV_ut468zElQwH-34" target="ooKsd2hV_ut468zElQwH-26" edge="1">
          <mxGeometry relative="1" as="geometry" />
        </mxCell>
        <mxCell id="ooKsd2hV_ut468zElQwH-56" value="Tunnel VPN Tailscale" style="edgeLabel;html=1;align=center;verticalAlign=middle;resizable=0;points=[];" parent="ooKsd2hV_ut468zElQwH-54" vertex="1" connectable="0">
          <mxGeometry x="0.4957" y="1" relative="1" as="geometry">
            <mxPoint as="offset" />
          </mxGeometry>
        </mxCell>
        <mxCell id="ooKsd2hV_ut468zElQwH-55" style="edgeStyle=orthogonalEdgeStyle;rounded=0;orthogonalLoop=1;jettySize=auto;html=1;entryX=0.212;entryY=1.006;entryDx=0;entryDy=0;entryPerimeter=0;" parent="1" source="ooKsd2hV_ut468zElQwH-34" target="ooKsd2hV_ut468zElQwH-27" edge="1">
          <mxGeometry relative="1" as="geometry">
            <Array as="points">
              <mxPoint x="573" y="590" />
              <mxPoint x="1201" y="590" />
            </Array>
          </mxGeometry>
        </mxCell>
        <mxCell id="ooKsd2hV_ut468zElQwH-57" value="Tunnel VPN Tailscale" style="edgeLabel;html=1;align=center;verticalAlign=middle;resizable=0;points=[];" parent="ooKsd2hV_ut468zElQwH-55" vertex="1" connectable="0">
          <mxGeometry x="0.4348" y="2" relative="1" as="geometry">
            <mxPoint as="offset" />
          </mxGeometry>
        </mxCell>
      </root>
    </mxGraphModel>
  </diagram>
</mxfile>
